#!OML:ASF I:\Actors\actors\Patient Classification 2\Patient 1\Session 1\actor1.ASF
:FULLY-SPECIFIED
:DEGREES

479
root -0.67201 18.1279 5.75424 1.16939 0.221655 -1.79579
lowerback 5.22451 2.16704 2.12025
upperback -3.18963 3.02186 -0.820924
thorax -6.09708 1.38521 -2.35519
lowerneck -12.796 -5.10858 -2.11473
upperneck 20.3278 -7.61017 4.35721
head 8.70737 -3.30314 0.952845
rclavicle 3.2054e-015 -7.95139e-016
rhumerus -57.6725 -10.547 -76.1639
rradius 51.1138
rwrist 0.74975
rhand -4.61264 -42.9483
rfingers 7.12502
rthumb 21.1656 -71.8129
lclavicle 3.2054e-015 -7.95139e-016
lhumerus -60.1406 0.171331 89.0354
lradius 78.6423
lwrist 8.67409
lhand -28.2822 -55.6015
lfingers 7.12502
lthumb -1.65845 -25.6282
rfemur 12.3831 2.55741 16.0541
rtibia -9.4258
rfoot -14.1634 -13.8886
rtoes 4.58333
lfemur 13.8742 -8.94188 -12.9824
ltibia -11.6579
lfoot -6.59727 17.2163
ltoes -14.7448
480
root -0.671311 18.1278 5.74537 1.09875 0.392205 -1.91128
lowerback 5.31029 2.13915 2.12899
upperback -3.16989 2.98865 -0.789013
thorax -6.1285 1.36863 -2.32706
lowerneck -12.7742 -5.1116 -2.33615
upperneck 20.3821 -7.60108 4.49919
head 8.73647 -3.30026 1.03768
rclavicle -1.70209e-014 5.96354e-015
rhumerus -58.0528 -11.2536 -75.5077
rradius 50.3649
rwrist 0.54785
rhand -6.21651 -42.9877
rfingers 7.12502
rthumb 19.6242 -72.0172
lclavicle -1.70209e-014 5.96354e-015
lhumerus -59.4457 0.020013 88.9175
lradius 75.8701
lwrist 8.67116
lhand -26.4656 -50.1207
lfingers 7.12502
lthumb 0.0960248 -20.141
rfemur 12.3764 2.39144 16.1891
rtibia -9.25963
rfoot -14.182 -13.8829
rtoes 4.23291
lfemur 13.9651 -8.95689 -12.837
ltibia -11.8337
lfoot -6.40963 17.1207
ltoes -14.8651
481
root -0.670662 18.128 5.73633 1.04723 0.530079 -1.9787
lowerback 5.41857 2.11761 2.11414
upperback -3.18225 2.96044 -0.799571
thorax -6.20541 1.35343 -2.33248
lowerneck -12.6995 -5.09533 -2.27163
upperneck 20.4089 -7.5753 4.41461
head 8.72466 -3.29282 1.00369
rclavicle 2.98674e-014 3.97569e-016
rhumerus -58.4463 -11.8176 -75.0166
rradius 49.6919
rwrist 0.499869
rhand -6.82645 -43.3617
rfingers 7.12502
rthumb 19.0377 -72.45
lclavicle 2.98674e-014 3.97569e-016
lhumerus -58.7298 -0.176837 88.7756
lradius 73.2966
lwrist 9.00694
lhand -23.8933 -43.4489
lfingers 7.12502
lthumb 2.58037 -13.4847
rfemur 12.3284 2.25983 16.2557
rtibia -9.0591
rfoot -14.2282 -13.8307
rtoes 4.12328
lfemur 14.0621 -9.01819 -12.7512
ltibia -12.0435
lfoot -6.23327 17.0491
ltoes -15.0708
482
root -0.670415 18.1278 5.72728 1.00965 0.601522 -2.05997
lowerback 5.46013 2.08845 2.07973
upperback -3.15611 2.92031 -0.779698
thorax -6.2064 1.33567 -2.2896
lowerneck -12.6906 -5.03922 -2.10647
upperneck 20.3855 -7.48148 4.19442
head 8.69555 -3.25949 0.914648
rclavicle 1.45361e-014 2.38542e-015
rhumerus -58.6547 -12.1895 -74.6869
rradius 49.0112
rwrist 0.709248
rhand -6.63522 -44.1514
rfingers 7.12502
rthumb 19.2216 -73.2215
lclavicle 1.45361e-014 2.38542e-015
lhumerus -57.8993 -0.355198 88.6915
lradius 70.8416
lwrist 10.1366
lhand -20.7578 -36.5474
lfingers 7.12502
lthumb 5.60821 -6.64164
rfemur 12.2525 2.19309 16.3367
rtibia -8.86503
rfoot -14.3096 -13.7643
rtoes 4.21855
lfemur 14.1542 -9.08278 -12.6547
ltibia -12.2337
lfoot -6.09942 16.9972
ltoes -15.0913
483
root -0.669905 18.1279 5.7183 0.95837 0.640693 -2.19878
lowerback 5.47032 2.03722 2.09715
upperback -3.0787 2.85594 -0.720323
thorax -6.13595 1.30641 -2.22904
lowerneck -12.7619 -4.96042 -2.1382
upperneck 20.3375 -7.35391 4.16313
head 8.68764 -3.20477 0.922905
rclavicle 2.19409e-014 3.97569e-015
rhumerus -58.6653 -12.4108 -74.5017
rradius 48.2672
rwrist 1.13526
rhand -6.45376 -44.5958
rfingers 7.12502
rthumb 19.3961 -73.6485
lclavicle 2.19409e-014 3.97569e-015
lhumerus -56.9379 -0.594264 88.7192
lradius 68.2618
lwrist 12.1441
lhand -17.9027 -30.9366
lfingers 7.12502
lthumb 8.36424 -1.1222
rfemur 12.1983 2.15452 16.4999
rtibia -8.70738
rfoot -14.3438 -13.7682
rtoes 3.94009
lfemur 14.2351 -9.11063 -12.4963
ltibia -12.3657
lfoot -6.00429 16.9679
ltoes -14.9411
484
root -0.668256 18.1288 5.70913 0.887658 0.669737 -2.25971
lowerback 5.49274 1.98333 2.06026
upperback -2.98521 2.78257 -0.679231
thorax -6.05747 1.27474 -2.1564
lowerneck -12.8561 -4.88747 -2.26655
upperneck 20.319 -7.23987 4.24302
head 8.70272 -3.15129 0.981801
rclavicle -3.8117e-014 5.96354e-015
rhumerus -58.5766 -12.5468 -74.4125
rradius 47.487
rwrist 1.73722
rhand -6.1771 -44.6154
rfingers 7.12502
rthumb 19.6621 -73.6411
lclavicle -3.8117e-014 5.96354e-015
lhumerus -55.785 -0.916474 88.8405
lradius 65.1858
lwrist 14.3547
lhand -16.172 -27.2648
lfingers 7.12502
lthumb 10.0342 2.47603
rfemur 12.166 2.12916 16.5708
rtibia -8.5533
rfoot -14.3744 -13.7772
rtoes 3.66292
lfemur 14.3229 -9.13722 -12.4371
ltibia -12.4792
lfoot -5.92429 16.9908
ltoes -15.0864
485
root -0.667269 18.1295 5.69836 0.819694 0.681265 -2.27491
lowerback 5.50032 1.93043 1.95158
upperback -2.88349 2.70522 -0.622243
thorax -5.96578 1.2445 -2.02588
lowerneck -12.936 -4.834 -2.32327
upperneck 20.3139 -7.13907 4.18853
head 8.71177 -3.11252 0.982826
rclavicle -1.6201e-014 7.95139e-016
rhumerus -58.3913 -12.6262 -74.3836
rradius 46.7103
rwrist 2.49397
rhand -5.94179 -44.5037
rfingers 7.12502
rthumb 19.8883 -73.506
lclavicle -1.6201e-014 7.95139e-016
lhumerus -54.4651 -1.23017 89.0143
lradius 61.6191
lwrist 15.8893
lhand -15.6088 -25.0532
lfingers 7.12502
lthumb 10.5775 4.66065
rfemur 12.1218 2.12336 16.5825
rtibia -8.39859
rfoot -14.4035 -13.7651
rtoes 3.59478
lfemur 14.4013 -9.13666 -12.4224
ltibia -12.586
lfoot -5.84449 16.9791
ltoes -15.1753
